<?xml version="1.0" standalone="no"?>
<!DOCTYPE svg PUBLIC "-//W3C//DTD SVG 20010904//EN"
 "http://www.w3.org/TR/2001/REC-SVG-20010904/DTD/svg10.dtd">
<svg version="1.0" xmlns="http://www.w3.org/2000/svg"
 width="1433.000000pt" height="1433.000000pt" viewBox="0 0 1433.000000 1433.000000"
 preserveAspectRatio="xMidYMid meet">
<metadata>
Created by potrace 1.14, written by Peter Selinger 2001-2017
</metadata>
<g transform="translate(0.000000,1433.000000) scale(0.100000,-0.100000)"
fill="#000000" stroke="none">
<path d="M7710 12374 c-31 -17 -72 -18 -88 -2 -8 8 -12 8 -12 1 0 -17 -23 -22
-68 -13 -23 4 -44 5 -47 2 -6 -6 -61 -12 -90 -10 -23 2 -242 0 -300 -3 -22 -1
-79 -12 -127 -25 -48 -13 -105 -24 -127 -24 -22 0 -43 -5 -46 -11 -4 -6 -19
-7 -37 -4 -21 5 -33 2 -41 -9 -11 -14 -15 -14 -39 -2 -24 13 -28 12 -48 -11
-18 -21 -27 -24 -61 -18 -34 6 -43 4 -55 -13 -13 -19 -17 -19 -42 -6 -32 17
-46 17 -72 4 -11 -5 -29 -14 -40 -20 -11 -5 -40 -10 -64 -10 -25 0 -48 -5 -52
-11 -3 -6 -17 -8 -31 -4 -14 3 -31 1 -39 -5 -7 -7 -18 -9 -24 -5 -7 4 -14 -2
-17 -15 -5 -18 -11 -21 -37 -17 -30 4 -131 -12 -151 -24 -9 -6 -64 -20 -82
-21 -5 0 -17 -7 -28 -14 -11 -8 -29 -14 -41 -14 -22 0 -104 -38 -115 -54 -4
-4 -15 -5 -26 -2 -21 7 -117 -21 -168 -48 -16 -9 -38 -16 -47 -16 -9 0 -24 -7
-33 -16 -9 -9 -36 -21 -61 -25 -24 -5 -64 -17 -88 -29 -49 -22 -77 -25 -92
-11 -16 16 -79 28 -101 20 -15 -5 -23 -3 -27 7 -3 8 -18 14 -34 14 -16 0 -32
3 -35 6 -4 4 -48 9 -99 11 -106 5 -126 7 -152 18 -11 5 -27 3 -38 -4 -13 -8
-24 -9 -31 -3 -7 6 -37 13 -69 17 -50 6 -57 5 -61 -11 -4 -18 -5 -18 -6 -1 -1
16 -7 18 -38 13 -49 -8 -120 -18 -156 -21 -30 -2 -87 -42 -84 -58 1 -5 -4 -12
-10 -14 -8 -3 -13 4 -13 16 0 30 -42 37 -104 18 -28 -9 -73 -19 -100 -23 -27
-4 -61 -13 -75 -20 -14 -8 -36 -14 -47 -14 -12 0 -35 -7 -50 -15 -16 -8 -36
-12 -45 -10 -9 3 -32 -3 -50 -14 -19 -10 -50 -22 -69 -26 -19 -4 -46 -16 -59
-26 -13 -11 -31 -19 -41 -19 -23 0 -73 -26 -94 -49 -10 -11 -25 -17 -34 -14
-9 4 -13 2 -9 -4 4 -6 -9 -13 -33 -17 -25 -4 -43 -14 -50 -26 -7 -13 -21 -20
-40 -20 -34 0 -125 -53 -141 -81 -5 -10 -16 -19 -23 -19 -7 0 -28 -7 -47 -17
-29 -14 -49 -27 -104 -71 -6 -5 -31 -21 -56 -35 -25 -15 -55 -37 -65 -48 -10
-12 -41 -32 -68 -46 -28 -14 -87 -64 -140 -117 -50 -51 -99 -96 -109 -99 -11
-4 -21 -16 -24 -27 -3 -11 -13 -20 -23 -20 -10 0 -26 -13 -37 -29 -10 -16 -37
-43 -59 -59 -31 -22 -43 -40 -48 -66 -5 -26 -11 -34 -22 -29 -15 6 -64 -39
-64 -60 0 -7 -12 -21 -28 -31 -15 -10 -45 -41 -67 -68 -22 -27 -55 -64 -74
-82 -26 -26 -33 -40 -29 -60 3 -17 1 -26 -7 -26 -7 0 -26 -16 -41 -36 -16 -20
-46 -57 -66 -83 -21 -25 -38 -53 -38 -63 0 -9 -9 -22 -20 -28 -11 -6 -20 -21
-20 -33 0 -12 -10 -31 -22 -42 -25 -22 -68 -80 -68 -91 0 -4 -16 -29 -35 -55
-19 -27 -35 -55 -35 -62 0 -6 -9 -27 -20 -45 -11 -18 -20 -43 -20 -55 0 -12
-9 -28 -20 -35 -30 -18 -51 -77 -40 -108 13 -34 13 -36 -9 -29 -15 5 -22 -2
-31 -32 -7 -21 -21 -49 -30 -63 -10 -14 -21 -39 -24 -57 -4 -18 -19 -56 -34
-85 -15 -29 -27 -57 -27 -63 -1 -5 -6 -19 -12 -30 -19 -37 -46 -134 -40 -149
5 -13 -35 -103 -52 -116 -3 -3 -7 -23 -9 -45 -2 -22 -10 -50 -18 -63 -8 -12
-11 -28 -7 -35 11 -17 12 -107 1 -113 -4 -3 -4 -13 2 -24 8 -15 7 -17 -12 -12
-18 4 -20 2 -14 -21 4 -17 2 -27 -4 -27 -6 0 -10 -17 -8 -40 1 -26 -4 -46 -16
-59 -11 -12 -16 -27 -12 -37 3 -8 -1 -39 -9 -67 -12 -44 -17 -103 -14 -187 0
-8 -6 -33 -14 -55 -14 -36 -14 -42 1 -58 9 -10 17 -25 19 -35 1 -9 5 -32 9
-49 5 -25 2 -34 -10 -39 -14 -5 -16 -16 -11 -63 4 -33 12 -59 21 -64 18 -10
19 -38 1 -31 -8 3 -19 -6 -25 -22 -10 -21 -10 -32 2 -56 9 -17 13 -42 9 -59
-3 -17 0 -35 8 -45 10 -13 10 -17 0 -24 -9 -5 -10 -13 -5 -21 5 -8 9 -43 11
-79 1 -36 8 -87 14 -114 6 -26 11 -60 11 -75 0 -14 12 -39 25 -55 18 -22 24
-38 21 -63 -2 -20 0 -33 7 -33 8 0 11 -26 9 -77 l-2 -78 40 -38 c30 -29 37
-41 29 -51 -8 -10 -4 -26 15 -62 14 -27 30 -54 35 -60 5 -6 6 -19 3 -28 -11
-29 25 -123 54 -143 15 -9 32 -18 37 -18 6 -1 9 -6 7 -13 -1 -7 2 -12 8 -12 5
0 10 -6 10 -14 0 -7 9 -20 20 -27 14 -9 26 -36 36 -82 9 -37 19 -65 24 -62 4
3 13 -1 19 -8 6 -8 28 -20 50 -27 23 -7 37 -18 35 -25 -3 -6 2 -18 11 -25 8
-7 15 -18 15 -25 0 -6 9 -20 20 -30 11 -10 20 -23 20 -30 0 -6 11 -22 25 -35
14 -13 25 -29 25 -37 0 -7 3 -13 8 -13 4 0 32 -21 62 -46 30 -25 64 -50 75
-55 45 -22 69 -38 77 -53 5 -9 15 -16 21 -16 13 0 28 -10 99 -68 22 -17 52
-35 67 -38 14 -3 38 -10 53 -16 15 -5 32 -7 37 -3 6 3 11 2 11 -3 0 -12 46
-21 71 -15 10 3 19 12 19 19 0 8 7 14 15 14 20 0 47 -68 40 -101 -4 -18 2 -44
19 -79 16 -32 23 -62 20 -75 -3 -13 -1 -26 5 -30 6 -3 8 -17 5 -31 -5 -20 -3
-23 12 -17 14 5 16 3 11 -12 -8 -19 12 -75 26 -75 12 0 37 -27 37 -39 0 -6 -5
-11 -11 -11 -12 0 -4 -49 11 -63 12 -13 50 2 50 18 0 8 7 18 15 22 13 8 13 11
0 30 -10 15 -22 20 -33 16 -11 -4 -8 1 7 14 l24 20 -24 34 c-13 19 -27 35 -31
37 -4 2 -2 12 4 21 17 28 3 54 -26 49 -18 -4 -26 0 -29 14 -5 19 7 25 18 8 3
-6 10 -10 15 -10 15 0 -1 63 -18 77 -9 7 -13 16 -9 19 4 4 0 19 -8 33 -7 14
-22 49 -31 76 -10 28 -24 55 -30 60 -27 22 -52 81 -42 99 11 19 -7 86 -24 86
-6 0 -7 7 -4 16 5 14 -9 57 -36 108 -7 14 -6 17 4 11 7 -3 5 0 -6 9 -18 15
-18 15 0 14 27 -1 65 17 94 44 26 24 55 92 46 107 -3 5 0 11 8 14 14 5 25 -15
41 -69 3 -12 15 -24 26 -27 11 -3 23 -15 26 -26 5 -20 71 -48 101 -42 6 1 12
-5 12 -14 0 -20 26 -20 34 1 7 17 -5 44 -28 64 -9 7 -16 25 -16 41 0 16 -4 38
-10 49 -5 11 -14 29 -20 40 -6 11 -10 28 -10 39 0 10 -9 29 -19 42 -14 17 -17
29 -10 42 7 12 6 19 -4 23 -8 3 -14 21 -15 45 -1 22 -7 49 -12 59 -8 14 -7 25
2 40 10 15 10 22 0 32 -8 8 -12 43 -12 98 0 50 -5 91 -11 97 -14 14 -13 351 1
368 5 6 9 60 9 119 0 59 4 113 10 119 5 7 12 46 15 87 13 167 18 215 26 225 5
6 11 42 14 80 13 156 34 273 57 317 5 10 9 38 9 63 0 25 6 61 14 79 7 18 17
53 21 77 4 24 13 58 20 74 8 17 16 50 18 75 7 63 18 101 35 128 8 13 16 36 18
50 4 41 14 84 30 119 8 17 19 55 24 84 6 29 16 60 23 68 7 9 23 36 34 61 52
110 73 159 73 168 0 12 66 138 90 173 11 15 20 33 20 39 0 7 20 41 45 76 25
34 45 67 45 72 0 5 9 12 21 15 12 3 18 10 14 16 -3 6 8 23 25 38 51 45 110
107 121 125 8 15 3 21 -26 35 -29 14 -40 15 -55 5 -11 -7 -24 -12 -30 -12 -5
0 -26 -16 -46 -35 -19 -19 -42 -35 -49 -35 -8 0 -39 -30 -70 -67 -73 -90 -70
-86 -85 -114 -7 -13 -17 -26 -21 -29 -4 -3 -9 -18 -11 -33 -3 -16 -10 -32 -17
-37 -8 -4 -10 -13 -7 -19 4 -6 0 -11 -8 -11 -9 0 -16 -7 -16 -15 0 -9 -12 -33
-26 -55 -14 -21 -23 -43 -20 -49 3 -5 0 -15 -7 -23 -8 -7 -22 -31 -32 -53 -9
-22 -32 -70 -51 -107 -19 -37 -34 -76 -34 -87 0 -11 -4 -22 -9 -25 -5 -3 -9
-22 -8 -41 1 -22 -6 -42 -20 -57 -24 -26 -29 -46 -19 -70 5 -11 0 -24 -13 -37
-12 -12 -21 -31 -21 -44 0 -12 -9 -47 -21 -77 -32 -88 -47 -133 -54 -170 -4
-19 -13 -45 -20 -56 -10 -16 -11 -24 -2 -33 8 -8 8 -14 -1 -23 -7 -7 -12 -22
-12 -35 0 -13 -4 -31 -9 -41 -19 -38 -31 -91 -31 -140 0 -29 -9 -78 -20 -110
-14 -40 -18 -66 -12 -82 8 -21 4 -41 -28 -146 -6 -17 -10 -47 -10 -67 0 -19
-5 -48 -11 -64 -6 -15 -13 -73 -15 -128 -1 -55 -7 -124 -13 -154 -14 -69 -14
-127 0 -152 7 -14 7 -24 0 -33 -14 -17 -26 -142 -14 -149 6 -4 8 -22 3 -45 -4
-21 -4 -47 0 -58 4 -10 6 -28 4 -39 -2 -11 -7 -68 -10 -127 -5 -79 -4 -108 4
-108 8 0 11 -19 9 -54 -1 -30 1 -52 6 -49 9 6 9 -9 -2 -25 -6 -10 -11 -5 -21
17 -7 17 -16 31 -20 31 -5 0 -11 13 -15 29 -8 38 -30 47 -33 13 -1 -14 -8 -29
-15 -34 -7 -4 -13 -31 -14 -65 -2 -69 -12 -123 -23 -123 -5 0 -25 -22 -45 -50
-20 -28 -44 -50 -52 -50 -10 0 -13 -6 -9 -16 3 -8 2 -24 -4 -34 -12 -22 3
-113 19 -118 6 -2 11 -10 11 -18 0 -8 7 -17 15 -20 8 -4 15 -14 15 -24 0 -10
6 -25 14 -33 15 -14 46 -98 46 -122 0 -28 -35 -15 -82 31 -27 26 -48 49 -48
53 0 4 -16 13 -35 21 -19 8 -35 19 -35 26 0 7 -9 16 -20 19 -11 3 -20 10 -20
15 0 5 -22 33 -50 62 -27 29 -56 60 -63 68 -8 8 -20 25 -26 38 -6 12 -20 22
-30 22 -25 0 -41 22 -35 46 3 12 -1 26 -10 33 -9 8 -16 18 -16 23 0 6 -10 18
-23 28 -20 16 -97 155 -97 175 0 3 -11 21 -25 39 -14 18 -25 42 -25 53 0 11
-7 26 -15 33 -8 7 -17 27 -21 46 -3 19 -10 34 -14 34 -4 0 -13 20 -20 45 -7
25 -17 45 -21 45 -5 0 -9 15 -9 34 0 19 -4 38 -10 41 -5 3 -10 19 -10 35 0 16
-4 31 -9 34 -5 4 -12 30 -16 58 -4 29 -13 62 -21 73 -7 11 -15 43 -18 70 -2
28 -9 63 -15 78 -7 18 -8 35 -2 45 6 11 6 24 0 34 -5 8 -10 42 -11 74 -1 38
-7 63 -17 70 -11 9 -12 17 -3 44 9 25 9 42 0 71 -9 30 -8 42 2 54 11 13 11 20
0 41 -11 20 -12 34 -2 70 15 56 15 107 1 121 -8 8 -7 19 4 42 11 22 13 40 7
60 -4 15 -4 35 1 42 4 8 6 24 3 36 -3 12 1 32 10 45 10 14 16 43 16 80 0 31 5
60 10 63 6 3 10 23 10 44 0 20 5 42 11 48 7 7 9 22 4 40 -13 47 -10 66 18 111
16 24 26 54 25 70 -1 15 6 41 15 59 9 18 17 39 17 47 0 9 9 30 20 48 11 18 20
48 20 66 0 18 7 44 16 57 9 13 14 30 11 37 -2 7 11 42 29 78 19 36 35 82 36
102 2 21 6 38 11 38 4 0 7 7 7 15 0 9 6 18 14 21 8 3 18 18 21 34 3 16 13 34
21 41 8 6 14 20 14 29 0 28 35 103 74 160 20 29 36 58 36 65 0 7 7 18 15 25 8
7 15 20 15 30 0 10 20 45 45 79 25 34 45 70 45 80 0 10 6 21 14 24 7 3 23 25
35 49 12 23 28 48 34 53 14 12 77 101 77 109 0 14 54 82 71 88 10 4 19 16 19
27 0 11 8 26 18 33 10 7 26 24 35 38 32 48 119 145 173 192 28 24 44 46 44 58
0 5 5 10 11 10 20 0 91 66 110 102 11 21 32 44 47 52 15 8 41 26 57 40 17 14
33 26 37 26 4 0 10 9 13 20 3 11 13 20 21 20 8 0 17 7 20 15 4 8 10 13 14 10
4 -3 26 15 47 40 22 24 60 54 84 66 24 13 62 38 83 56 22 18 44 33 50 33 5 0
18 7 28 17 20 18 33 26 108 66 29 16 73 43 99 60 65 44 88 57 105 57 18 0 96
50 96 62 0 4 11 8 25 8 22 0 60 15 75 30 9 9 54 29 90 39 19 5 62 17 95 26 33
10 65 21 70 25 6 5 51 15 100 24 153 28 199 38 225 47 14 4 53 10 87 12 35 2
66 7 70 10 8 9 323 9 323 0 0 -3 -7 -14 -15 -24 -30 -32 12 -109 58 -109 12 0
45 12 72 25 28 14 66 25 86 25 20 0 49 7 66 15 64 32 176 8 316 -66 10 -5 22
-7 27 -4 5 3 17 2 27 -3 98 -50 151 -62 182 -43 16 11 17 84 1 89 -5 2 -10 12
-10 22 0 20 -35 50 -60 50 -8 0 -31 16 -50 35 -19 19 -37 35 -42 35 -4 0 -5 7
-2 15 4 8 18 15 33 15 26 0 136 32 176 51 20 10 205 75 235 83 8 2 29 7 45 11
80 17 122 28 140 35 11 5 39 11 62 14 48 7 101 34 107 56 3 12 4 12 5 -1 2
-25 48 -29 91 -8 22 11 52 19 67 19 15 0 42 9 59 19 21 13 43 17 69 14 33 -3
129 21 145 37 9 9 40 8 40 -2 0 -11 74 -1 102 13 10 5 53 11 96 13 44 1 83 5
88 8 5 3 47 11 94 19 47 7 96 19 109 25 14 8 32 9 45 4 12 -4 44 -5 71 -2 45
4 82 5 163 1 15 0 92 2 172 5 169 7 158 7 235 3 33 -2 67 -7 74 -12 8 -4 73
-10 145 -11 72 -2 140 -3 151 -4 11 0 33 -5 48 -12 20 -8 35 -8 51 0 16 7 27
7 33 1 17 -17 129 -36 190 -33 31 2 62 -1 68 -6 5 -4 46 -13 90 -19 43 -6 88
-17 100 -25 11 -7 42 -13 69 -14 39 0 54 -6 80 -30 28 -26 35 -28 76 -21 35 7
46 6 53 -6 4 -8 14 -15 21 -15 7 0 21 -9 31 -20 13 -15 31 -20 64 -20 27 0 63
-9 86 -20 22 -11 49 -20 61 -20 12 0 32 -11 46 -25 14 -14 38 -26 54 -28 16
-2 45 -13 64 -25 19 -12 49 -22 66 -22 17 0 41 -9 53 -19 12 -10 36 -25 54
-32 17 -7 39 -19 48 -26 22 -19 90 -53 105 -53 7 0 42 -20 78 -45 36 -24 76
-47 90 -51 13 -3 41 -21 61 -40 21 -19 39 -34 40 -34 1 0 20 -16 41 -35 21
-19 43 -35 49 -35 6 0 18 -9 28 -20 9 -11 28 -20 42 -20 15 0 25 -6 25 -14 0
-23 46 -72 95 -100 31 -19 45 -34 47 -52 2 -21 13 -30 58 -48 41 -17 56 -28
58 -45 2 -15 14 -26 33 -33 21 -7 32 -19 36 -39 6 -31 69 -89 97 -89 9 0 22
-11 28 -25 6 -14 14 -25 18 -25 3 0 16 -20 28 -44 12 -24 29 -49 37 -56 8 -7
15 -20 15 -29 0 -10 14 -30 30 -46 17 -16 30 -34 30 -41 0 -7 25 -37 55 -66
38 -37 53 -58 49 -70 -3 -10 -1 -18 5 -18 6 0 11 -5 11 -12 0 -6 17 -27 39
-47 21 -20 42 -47 46 -61 4 -14 11 -27 14 -30 4 -3 15 -24 26 -48 10 -24 32
-52 48 -64 22 -16 27 -26 23 -44 -4 -16 6 -48 33 -101 22 -43 47 -95 56 -116
9 -21 23 -41 31 -44 8 -3 14 -12 14 -21 0 -8 8 -24 17 -35 12 -12 18 -36 19
-68 0 -26 6 -59 12 -71 6 -13 16 -36 22 -52 8 -22 13 -26 24 -17 11 9 14 1 19
-43 3 -30 12 -65 20 -78 18 -28 29 -71 32 -118 3 -56 68 -250 88 -262 6 -4 11
-20 9 -36 -2 -15 1 -40 7 -55 7 -17 7 -28 1 -32 -17 -10 -12 -55 6 -55 13 0
15 -7 9 -41 -5 -31 -3 -45 10 -59 13 -14 17 -44 20 -142 4 -123 15 -213 28
-234 3 -6 7 -62 8 -125 1 -63 6 -125 12 -139 5 -14 8 -61 6 -105 -3 -108 -3
-112 4 -177 3 -32 1 -60 -3 -63 -12 -8 -10 -97 2 -112 7 -9 7 -17 -1 -27 -7
-8 -13 -71 -16 -162 -3 -82 -7 -162 -9 -179 -8 -66 -19 -243 -17 -284 1 -24
-3 -47 -9 -51 -18 -11 -60 1 -60 17 0 9 -6 13 -15 9 -8 -3 -15 -1 -15 4 0 5
-13 15 -30 23 -23 12 -38 13 -65 6 -24 -7 -48 -6 -77 2 -24 7 -48 12 -55 10
-6 -1 -14 3 -18 9 -4 7 -12 7 -25 0 -10 -5 -26 -7 -34 -4 -9 4 -23 1 -30 -5
-10 -9 -16 -9 -21 -1 -4 6 -16 8 -28 4 -11 -4 -42 -6 -68 -5 -27 0 -51 -4 -54
-9 -3 -5 -12 -7 -20 -3 -8 3 -15 0 -15 -7 0 -8 -9 -10 -24 -6 -14 3 -28 2 -31
-4 -3 -5 -17 -10 -30 -10 -14 0 -34 -12 -48 -30 -14 -16 -32 -30 -39 -30 -7 0
-30 -11 -50 -25 -20 -14 -42 -25 -48 -25 -17 0 -58 -42 -69 -72 -7 -18 -15
-26 -25 -22 -15 6 -56 -32 -56 -53 0 -7 -8 -13 -18 -13 -22 0 -42 -19 -42 -40
0 -9 -11 -23 -25 -30 -14 -7 -25 -22 -25 -32 0 -10 -9 -27 -20 -38 -11 -11
-20 -24 -20 -30 0 -5 -5 -10 -10 -10 -6 0 -13 -8 -17 -17 -3 -10 -13 -26 -20
-35 -13 -15 -12 -21 13 -51 31 -40 54 -39 46 1 -5 25 -4 26 12 13 15 -13 18
-12 22 6 3 11 17 26 30 34 16 8 22 18 19 30 -8 24 23 58 46 52 20 -6 26 15 11
32 -5 6 -6 21 -2 35 l7 25 11 -27 c12 -30 32 -38 32 -14 0 8 9 22 21 30 12 8
18 19 14 25 -3 6 2 14 12 18 10 3 32 18 48 31 17 14 45 31 63 39 18 7 37 24
41 36 8 19 17 23 67 25 62 3 94 21 94 54 0 10 6 18 14 18 8 0 16 6 19 13 4 10
7 10 18 0 18 -17 29 -16 29 2 0 8 5 15 10 15 6 0 10 -6 10 -14 0 -24 16 -26
38 -6 26 24 50 25 74 3 10 -9 18 -11 18 -5 0 6 13 18 30 27 36 19 41 19 34 0
-6 -14 6 -20 30 -16 5 1 23 -5 41 -13 18 -9 56 -18 84 -20 39 -3 56 -9 67 -25
9 -13 31 -24 56 -27 26 -5 42 -13 45 -24 2 -9 14 -23 26 -31 12 -8 37 -31 57
-51 19 -21 40 -38 45 -38 19 0 148 -147 167 -192 15 -32 25 -45 36 -41 11 5
13 1 8 -14 -4 -12 1 -28 11 -40 10 -12 26 -31 37 -43 10 -13 19 -32 20 -44 3
-22 48 -100 64 -110 9 -5 1 -72 -13 -108 -5 -12 0 -17 17 -20 16 -2 22 -9 20
-21 -2 -10 3 -28 11 -40 22 -34 26 -65 12 -77 -17 -14 -8 -43 11 -36 17 7 36
-18 28 -38 -3 -9 -1 -23 6 -31 11 -13 11 -20 0 -39 -7 -13 -9 -30 -5 -37 6 -9
3 -11 -8 -6 -22 8 -22 -11 -1 -41 15 -22 15 -24 -2 -36 -16 -12 -18 -27 -15
-112 1 -55 4 -107 7 -116 4 -12 0 -18 -12 -18 -14 0 -16 -7 -11 -51 4 -34 2
-63 -8 -85 -8 -20 -10 -36 -4 -39 5 -4 6 -11 3 -17 -4 -6 -8 -29 -10 -52 -2
-22 -10 -54 -18 -71 -8 -16 -20 -55 -26 -85 -7 -30 -16 -59 -20 -65 -4 -5 -11
-28 -14 -50 -4 -22 -16 -58 -26 -80 -48 -105 -71 -159 -83 -196 -6 -21 -17
-39 -24 -39 -7 0 -20 -15 -29 -33 -9 -17 -27 -45 -40 -60 -13 -16 -24 -35 -24
-42 0 -8 -6 -18 -13 -22 -8 -4 -22 -21 -32 -36 -16 -24 -16 -30 -4 -38 10 -6
7 -9 -13 -9 -23 0 -28 -4 -28 -25 0 -18 -4 -23 -15 -19 -8 4 -15 1 -15 -5 0
-6 -14 -18 -31 -26 -31 -17 -70 -47 -122 -98 -16 -15 -33 -25 -38 -21 -5 3 -9
0 -9 -6 0 -6 -8 -9 -18 -6 -12 4 -29 -3 -46 -19 -15 -14 -36 -25 -46 -25 -10
0 -22 -5 -25 -10 -3 -6 -16 -8 -28 -4 -13 3 -44 -4 -70 -15 -35 -15 -59 -19
-91 -15 -37 6 -46 3 -57 -13 -10 -17 -16 -19 -41 -9 -15 6 -28 15 -28 21 0 19
-35 31 -83 29 -42 -3 -53 1 -78 27 -28 28 -46 39 -34 19 11 -18 -13 -10 -42
14 -31 26 -41 29 -90 27 -26 -1 -33 -5 -33 -21 0 -24 -27 -16 -35 11 -7 22
-35 26 -35 4 0 -8 -4 -15 -10 -15 -5 0 -20 -15 -32 -32 -21 -31 -56 -46 -68
-30 -21 28 -90 33 -90 6 0 -8 -7 -14 -15 -14 -8 0 -20 -9 -27 -20 -7 -11 -21
-20 -30 -20 -10 0 -18 -7 -18 -15 0 -8 5 -15 12 -15 8 0 9 -3 2 -10 -5 -5 -32
-11 -59 -12 -41 -1 -55 -7 -77 -31 -16 -16 -28 -26 -28 -23 0 4 -9 2 -20 -4
-11 -6 -20 -17 -20 -24 0 -8 -9 -16 -21 -19 -25 -7 -23 -35 4 -51 13 -8 20 -8
26 2 12 20 24 -15 12 -37 -8 -13 -5 -17 11 -18 23 -2 34 -10 26 -19 -3 -3 -21
-1 -39 3 -26 7 -39 19 -55 50 l-20 41 -31 -15 c-17 -8 -34 -25 -37 -38 -4 -16
-11 -22 -24 -18 -20 5 -48 -22 -54 -52 -2 -12 -13 -21 -28 -23 -13 -2 -38 -15
-55 -28 -18 -13 -37 -24 -43 -24 -6 0 -16 -16 -23 -35 -7 -19 -17 -35 -21 -35
-4 0 -8 -8 -8 -17 -1 -17 -1 -17 -14 0 -17 22 -28 22 -44 -3 -7 -11 -20 -20
-30 -20 -9 0 -23 -9 -30 -20 -7 -11 -19 -20 -27 -20 -8 0 -15 -8 -15 -18 0
-10 -10 -23 -22 -29 -95 -42 -137 -66 -166 -93 -18 -16 -42 -30 -53 -30 -20 0
-25 -20 -9 -36 6 -6 6 -15 -1 -24 -8 -13 -11 -13 -23 3 -15 20 -36 23 -36 5 0
-7 -21 -24 -48 -37 -26 -13 -57 -29 -69 -35 -12 -6 -25 -23 -28 -37 -5 -22
-13 -28 -45 -33 -22 -3 -43 -12 -47 -20 -4 -8 -19 -16 -33 -18 -19 -2 -26 -10
-28 -30 -3 -27 -28 -56 -39 -45 -3 4 0 13 6 21 17 20 -5 32 -27 14 -9 -8 -29
-20 -44 -28 -15 -7 -37 -21 -47 -32 -11 -10 -25 -18 -30 -18 -6 0 -20 -14 -33
-30 -12 -17 -30 -30 -40 -30 -35 0 -117 -68 -118 -98 0 -8 -12 -12 -36 -10
-20 1 -39 -3 -43 -11 -4 -7 -19 -18 -32 -25 -92 -49 -147 -91 -142 -108 2 -4
-4 -5 -12 -2 -16 7 -80 -20 -91 -37 -3 -6 -26 -19 -49 -29 -24 -10 -49 -28
-55 -39 -6 -12 -21 -21 -33 -21 -12 0 -35 -7 -51 -15 -15 -8 -36 -15 -46 -15
-10 0 -23 -6 -29 -14 -7 -8 -24 -17 -38 -21 -26 -6 -74 -36 -101 -62 -7 -7
-20 -13 -28 -13 -8 0 -14 -5 -14 -11 0 -6 -6 -9 -14 -6 -8 3 -22 -1 -33 -8
-10 -8 -33 -15 -50 -15 -23 0 -33 -5 -33 -16 0 -8 -4 -13 -9 -9 -5 3 -31 -6
-57 -20 -26 -14 -53 -25 -61 -25 -7 0 -19 -11 -25 -25 -8 -18 -16 -24 -27 -19
-25 10 -59 6 -94 -13 -18 -9 -51 -18 -74 -19 -66 -4 -123 -23 -150 -50 -13
-13 -29 -24 -35 -24 -7 0 -22 -10 -35 -22 -23 -21 -23 -21 -38 -2 -14 17 -16
18 -28 3 -11 -14 -14 -14 -26 -2 -10 11 -16 12 -24 4 -6 -6 -21 -11 -33 -11
-25 0 -45 -21 -26 -28 7 -2 12 -10 12 -18 0 -8 5 -14 10 -14 6 0 16 -11 22
-25 12 -27 34 -35 24 -9 -6 15 0 16 42 10 41 -5 53 -3 75 15 l27 20 0 -20 c0
-27 5 -26 76 5 34 15 67 23 80 20 12 -3 36 -3 53 0 27 6 29 9 24 35 -3 18 -1
29 6 29 6 0 11 -4 11 -9 0 -31 132 -13 211 30 20 10 44 19 53 19 9 0 25 9 36
20 11 11 27 20 35 20 9 0 18 7 21 15 4 9 19 15 41 15 30 0 62 12 128 47 41 22
113 53 122 53 5 0 20 9 33 20 13 11 42 25 64 32 23 6 48 17 57 25 8 7 23 13
33 13 9 0 19 7 22 15 4 8 12 15 19 15 8 0 15 10 17 23 2 14 11 23 26 25 14 2
22 9 19 17 -4 9 9 15 43 19 27 4 50 13 53 20 3 8 24 17 47 21 24 4 46 15 53
26 6 10 22 19 34 19 22 0 63 43 63 66 0 8 8 14 17 14 26 0 87 24 96 37 4 7 14
13 22 13 17 0 35 30 36 62 0 20 2 21 11 7 10 -14 16 -13 62 9 54 25 126 88
126 109 0 7 6 10 14 7 18 -7 69 19 93 48 10 13 30 31 44 40 20 13 25 23 22 42
-4 19 -1 26 11 26 9 0 16 5 16 10 0 17 68 12 78 -6 8 -14 11 -14 26 7 9 13 16
34 16 47 0 24 21 52 39 52 7 0 6 -10 -1 -31 -6 -16 -8 -32 -6 -35 12 -12 67
22 110 67 34 35 55 49 74 49 33 0 94 37 94 57 0 8 9 17 20 20 23 6 24 8 10 34
-11 20 3 28 15 9 8 -13 45 -13 45 0 0 6 18 17 40 26 29 12 44 26 60 59 26 53
51 78 44 43 -5 -20 -4 -21 6 -6 6 10 17 18 24 18 7 0 21 9 31 20 10 11 21 17
25 15 10 -6 87 50 99 74 6 10 24 24 40 29 20 7 33 20 37 36 5 21 11 25 29 20
16 -4 29 2 49 26 14 17 26 36 26 41 0 5 6 9 13 9 13 0 28 24 41 62 5 15 9 16
32 6 22 -10 27 -10 35 5 6 9 18 17 27 17 9 0 32 9 51 21 23 14 44 19 62 15 27
-5 79 12 79 27 0 8 -16 11 -40 7 -12 -1 -13 1 -3 11 8 8 33 12 65 10 41 -2 61
-9 90 -32 20 -16 43 -29 51 -29 8 0 20 -7 27 -15 7 -8 22 -15 34 -15 11 0 32
-12 45 -25 13 -14 32 -25 42 -25 10 0 19 -6 19 -14 0 -8 9 -13 24 -12 14 0 22
6 19 13 -3 7 0 13 6 13 6 0 11 -5 11 -10 0 -7 33 -10 85 -9 47 1 91 -3 98 -8
6 -5 30 -10 53 -11 22 0 47 -2 54 -4 8 -2 14 2 15 9 0 23 15 26 34 5 23 -27
47 -28 89 -2 18 11 39 20 47 20 8 0 15 7 15 16 0 11 6 13 19 9 11 -3 22 -1 26
5 3 5 15 10 25 10 10 0 25 7 34 15 8 8 28 15 45 15 17 0 31 3 31 8 0 4 14 13
30 20 31 14 51 29 125 95 23 20 47 37 54 37 6 0 11 3 11 8 0 4 20 29 45 55 25
27 45 54 45 60 0 6 12 21 28 34 23 19 25 24 12 33 -10 6 -11 10 -2 10 6 0 12
7 12 16 0 11 6 15 20 11 27 -7 55 31 114 155 25 54 50 98 55 98 5 0 12 17 16
38 4 20 11 42 16 48 5 7 9 16 7 20 -1 5 4 20 12 34 17 30 41 108 41 133 0 11
11 42 24 70 13 29 26 75 30 102 4 28 11 75 16 105 5 30 12 89 14 130 3 41 10
90 16 108 9 27 8 37 -5 51 -12 13 -13 20 -4 29 6 6 11 39 12 74 1 56 -1 64
-21 73 -24 10 -42 38 -19 29 15 -6 38 40 30 60 -3 8 -13 16 -22 18 -14 3 -14
5 1 20 11 11 13 19 7 23 -6 4 -10 23 -9 43 1 21 2 61 1 90 -2 45 -5 52 -22 52
-23 0 -27 15 -5 24 8 3 15 10 15 15 0 5 -7 16 -15 25 -8 8 -15 24 -15 35 0 12
-5 21 -12 21 -6 0 -8 3 -5 7 4 3 2 12 -5 20 -6 7 -8 16 -5 20 4 3 -4 24 -17
47 -21 36 -43 126 -37 150 1 5 -9 21 -23 35 -14 15 -28 44 -31 67 -5 28 -14
43 -28 50 -12 5 -25 20 -28 34 -11 44 -21 70 -29 70 -4 0 -20 19 -36 43 -15
23 -42 57 -60 75 -31 33 -60 104 -49 123 4 5 9 37 11 70 2 34 11 74 20 91 12
22 13 33 4 43 -9 11 -9 23 1 52 14 43 19 80 24 171 2 35 6 66 9 69 10 10 -6
87 -21 104 -12 14 -12 17 1 22 16 7 32 67 20 76 -11 7 -11 37 -1 47 10 10 9
62 -3 83 -6 11 -6 30 0 50 5 19 5 33 -1 37 -5 3 -7 21 -3 40 4 20 1 47 -6 65
-9 21 -10 33 -3 37 13 9 22 71 12 78 -4 2 -3 18 3 34 8 24 7 35 -6 55 -13 19
-14 33 -7 66 13 55 3 107 -20 114 -21 7 -26 25 -6 26 6 0 2 5 -10 11 -30 15
-29 42 3 63 23 15 24 18 11 33 -13 15 -13 24 -3 66 11 41 10 54 -1 75 -7 14
-16 42 -19 61 -3 19 -8 42 -11 50 -4 8 -7 40 -8 70 -1 31 -9 71 -18 89 -19 39
-22 83 -7 112 8 15 7 21 -3 25 -18 6 -30 55 -27 107 1 21 -3 37 -9 37 -6 0
-11 14 -11 30 0 17 -6 33 -14 36 -8 3 -16 27 -20 55 -4 28 -11 47 -16 44 -6
-4 -10 -2 -10 4 0 5 5 13 10 16 8 5 8 11 1 19 -6 7 -8 21 -5 33 3 11 1 24 -5
27 -6 4 -11 25 -11 47 0 28 -4 39 -15 39 -8 0 -15 7 -15 15 0 9 -6 18 -13 21
-9 3 -14 24 -15 57 -1 34 -6 55 -16 63 -9 6 -16 23 -16 37 0 15 -9 32 -21 40
-15 11 -22 30 -26 70 -4 41 -12 62 -29 78 -13 12 -24 33 -24 46 0 13 -4 22 -9
19 -12 -8 -45 44 -43 67 0 10 -6 21 -14 24 -8 3 -14 15 -14 28 0 12 -11 43
-25 68 -14 24 -23 51 -20 59 3 8 -1 21 -10 28 -8 7 -15 19 -15 26 0 8 -9 14
-20 14 -11 0 -20 4 -20 10 0 5 -9 18 -21 29 -12 11 -18 24 -15 29 3 6 -1 12
-8 15 -9 4 -14 19 -14 37 1 31 -19 80 -33 80 -4 0 -22 13 -39 29 -22 20 -31
36 -29 53 3 17 -9 39 -39 74 -23 27 -42 53 -42 57 0 4 -13 22 -30 40 -16 18
-30 38 -30 45 0 7 -7 15 -15 18 -8 4 -13 10 -10 14 10 16 -32 71 -66 89 -19
10 -43 35 -54 56 -11 21 -42 56 -70 77 -27 22 -63 57 -80 78 -16 21 -52 57
-80 81 -27 23 -56 51 -64 63 -27 41 -65 76 -81 76 -9 0 -29 13 -43 30 -15 16
-40 36 -56 45 -20 10 -33 27 -39 48 -5 20 -16 33 -28 36 -10 2 -25 12 -32 22
-7 11 -18 19 -24 19 -6 0 -21 11 -34 25 -13 14 -37 28 -53 31 -16 4 -34 16
-42 30 -7 14 -21 24 -35 24 -13 0 -35 15 -53 35 -17 19 -36 35 -44 35 -7 0
-28 16 -47 35 -24 24 -37 32 -45 25 -13 -11 -45 -3 -45 11 0 5 -13 15 -30 24
-16 9 -30 12 -30 8 0 -4 -14 7 -30 24 -22 22 -37 29 -51 26 -14 -4 -25 0 -31
11 -5 9 -17 16 -27 16 -11 0 -22 7 -25 15 -3 9 -13 15 -23 13 -10 -2 -25 10
-37 29 -27 41 -43 47 -73 27 -17 -11 -28 -13 -35 -6 -6 6 -16 9 -22 6 -6 -2
-20 10 -31 26 -11 17 -31 33 -45 36 -36 8 -80 28 -80 35 0 3 -22 9 -48 12 -60
7 -161 51 -179 77 -16 23 -39 26 -46 6 -5 -12 -14 -12 -49 -4 -24 6 -47 15
-53 19 -5 5 -22 9 -38 9 -24 0 -27 3 -18 13 17 21 4 25 -40 13 -30 -8 -45 -7
-59 2 -11 7 -29 12 -40 12 -11 0 -20 4 -20 9 0 14 -95 41 -147 41 -30 0 -60 7
-81 20 -38 23 -66 25 -84 6 -11 -11 -15 -11 -24 2 -12 17 -19 19 -115 30 -36
4 -73 13 -82 20 -13 11 -17 10 -27 -7 -13 -26 -26 -26 -84 -1 -40 17 -47 17
-60 4 -13 -12 -19 -12 -36 -2 -16 10 -24 10 -40 0 -11 -7 -20 -8 -20 -4 0 5
-36 9 -81 10 -44 1 -86 5 -92 9 -6 3 -37 7 -69 9 -44 2 -58 -1 -58 -12 0 -8
-3 -14 -7 -14 -13 0 -82 26 -89 33 -10 10 -25 7 -54 -9z m-6250 -3204 c0 -5
-5 -10 -11 -10 -5 0 -7 5 -4 10 3 6 8 10 11 10 2 0 4 -4 4 -10z m9410 -2232
c0 -23 -3 -29 -11 -21 -6 6 -8 20 -4 32 9 30 15 26 15 -11z m-8270 -151 c11
-5 9 -6 -4 -4 -11 1 -21 9 -23 17 -3 10 -2 11 4 4 4 -6 15 -14 23 -17z m2 -79
c-8 -8 -9 -4 -5 13 4 13 8 18 11 10 2 -7 -1 -18 -6 -23z m8078 18 c0 -3 -4 -8
-10 -11 -5 -3 -10 -1 -10 4 0 6 5 11 10 11 6 0 10 -2 10 -4z m-8203 -618 c-3
-8 -6 -5 -6 6 -1 11 2 17 5 13 3 -3 4 -12 1 -19z m8173 -1884 c0 -2 -9 -4 -20
-4 -11 0 -20 4 -20 9 0 5 9 7 20 4 11 -3 20 -7 20 -9z m167 -6 c-3 -8 -6 -5
-6 6 -1 11 2 17 5 13 3 -3 4 -12 1 -19z m-617 -302 c0 -2 -7 -9 -15 -16 -12
-10 -15 -10 -15 4 0 9 7 16 15 16 8 0 15 -2 15 -4z m-200 -166 c0 -5 -4 -10
-10 -10 -5 0 -10 5 -10 10 0 6 5 10 10 10 6 0 10 -4 10 -10z m-513 -315 c9
-25 -4 -29 -17 -6 -7 15 -7 21 0 21 6 0 13 -7 17 -15z m-347 -289 c0 -9 -30
-14 -35 -6 -4 6 3 10 14 10 12 0 21 -2 21 -4z"/>
<path d="M1307 12213 c-12 -11 -7 -33 7 -33 12 0 26 20 26 36 0 7 -26 5 -33
-3z"/>
<path d="M925 11960 c3 -5 15 -10 26 -10 10 0 19 5 19 10 0 6 -12 10 -26 10
-14 0 -23 -4 -19 -10z"/>
<path d="M405 11930 c-3 -5 1 -10 10 -10 9 0 13 5 10 10 -3 6 -8 10 -10 10 -2
0 -7 -4 -10 -10z"/>
<path d="M420 11881 c-13 -26 -13 -31 3 -31 18 0 49 34 40 43 -12 13 -32 7
-43 -12z"/>
<path d="M345 11871 c-3 -5 -1 -12 5 -16 5 -3 10 1 10 9 0 18 -6 21 -15 7z"/>
<path d="M255 11810 c-70 -39 -74 -77 -6 -64 36 7 42 24 9 24 -16 0 -19 3 -11
11 8 8 17 7 31 -2 24 -15 42 -5 24 13 -7 7 -8 17 -1 30 5 10 8 18 7 17 -2 -1
-25 -13 -53 -29z"/>
<path d="M364 11615 c-17 -36 -5 -85 22 -95 13 -5 24 -16 24 -25 0 -18 12 -19
28 -3 9 9 7 19 -7 42 -10 17 -27 47 -38 67 -18 35 -19 35 -29 14z"/>
<path d="M635 11549 c-4 -5 -21 -9 -38 -7 -28 3 -32 0 -35 -24 -3 -28 -26 -38
-35 -15 -3 6 -6 -1 -6 -16 -1 -41 15 -66 38 -60 11 3 17 11 15 18 -3 7 7 17
25 23 17 6 31 18 31 26 0 20 16 21 24 1 8 -21 33 -19 46 4 13 26 13 31 -4 31
-7 0 -19 7 -26 15 -15 18 -26 19 -35 4z"/>
<path d="M458 11463 c-10 -2 -30 -17 -46 -32 -15 -15 -34 -30 -41 -32 -18 -6
-6 -29 15 -29 8 0 14 7 14 15 0 9 9 15 23 15 49 0 67 11 67 41 0 16 -3 28 -7
28 -5 -1 -16 -3 -25 -6z"/>
<path d="M308 11373 c7 -3 16 -2 19 1 4 3 -2 6 -13 5 -11 0 -14 -3 -6 -6z"/>
<path d="M159 11233 c0 -11 -3 -13 -6 -5 -7 18 -50 15 -62 -5 -10 -17 -10 -17
-11 0 0 23 -17 22 -30 -3 -6 -11 -20 -20 -30 -20 -17 0 -20 -7 -20 -43 l0 -43
40 -1 c42 -2 52 11 28 36 -11 10 -7 12 17 10 45 -4 74 9 81 37 3 13 10 24 15
24 5 0 9 7 9 15 0 21 -30 19 -31 -2z"/>
<path d="M4880 10960 c0 -5 -11 -10 -25 -10 -28 0 -91 -33 -118 -61 -10 -10
-27 -19 -37 -19 -11 0 -20 -5 -20 -11 0 -12 -39 -50 -108 -107 -23 -19 -41
-37 -39 -39 3 -2 -10 -19 -27 -37 -57 -61 -86 -102 -126 -176 -14 -25 -35 -59
-47 -76 -13 -17 -23 -36 -23 -41 0 -6 -7 -16 -15 -23 -8 -7 -15 -23 -15 -36 0
-13 -11 -35 -25 -50 -13 -14 -22 -30 -19 -35 3 -5 -5 -28 -17 -52 -12 -23 -25
-50 -30 -59 -5 -10 -9 -31 -9 -47 0 -16 -7 -34 -15 -41 -8 -7 -15 -20 -15 -30
0 -9 -9 -43 -20 -75 -11 -32 -20 -69 -20 -82 0 -12 -3 -23 -8 -23 -14 0 -34
-61 -29 -88 3 -17 -2 -35 -14 -51 -13 -16 -19 -37 -17 -61 1 -20 -2 -43 -7
-50 -5 -8 -8 -25 -7 -36 3 -23 -22 -125 -40 -161 -8 -17 -8 -26 1 -37 7 -8 9
-21 5 -28 -4 -7 -7 -26 -6 -42 2 -16 -5 -37 -13 -46 -11 -12 -13 -20 -6 -25
16 -9 13 -62 -5 -120 -19 -61 -20 -151 -3 -198 9 -25 9 -45 2 -75 -9 -33 -8
-43 5 -56 12 -12 13 -18 3 -30 -12 -14 -14 -100 -2 -121 9 -17 11 -177 2 -193
-6 -10 -4 -24 7 -40 8 -13 16 -49 18 -80 1 -31 9 -70 18 -87 10 -18 14 -41 10
-58 -3 -15 -1 -33 4 -40 6 -7 13 -35 16 -64 6 -55 19 -92 48 -134 10 -15 22
-59 28 -99 7 -51 17 -79 32 -95 13 -13 23 -37 24 -53 2 -38 43 -122 60 -122 7
0 16 -5 20 -12 5 -7 2 -9 -7 -4 -8 4 -5 0 5 -8 18 -15 15 -21 -9 -16 -5 1 -4
-4 3 -11 13 -15 17 -33 4 -25 -5 3 -9 -1 -9 -9 0 -8 4 -12 9 -9 4 3 8 -4 8
-15 0 -12 5 -20 11 -18 6 1 14 -4 16 -10 3 -7 -1 -13 -7 -13 -17 0 39 -43 80
-63 19 -9 50 -27 69 -41 19 -14 41 -26 48 -26 7 0 13 -4 13 -9 0 -11 201 -111
223 -111 9 0 18 -4 21 -9 3 -4 31 -11 63 -15 31 -4 62 -11 67 -16 13 -10 163
-16 173 -7 12 13 41 7 47 -9 5 -13 17 -14 76 -8 43 4 75 3 82 -4 16 -12 64 -8
83 8 22 19 19 50 -5 50 -11 0 -20 7 -20 15 0 8 -5 15 -11 15 -6 0 -9 -6 -6
-12 7 -20 -23 -72 -35 -60 -6 6 -5 17 3 30 11 18 10 24 -6 42 -10 11 -24 19
-31 16 -7 -3 -17 1 -23 8 -11 13 -110 43 -125 38 -4 -1 -15 3 -24 10 -13 11
-14 11 -8 0 8 -13 -20 -10 -70 9 -12 4 -25 5 -28 2 -3 -3 -16 1 -29 10 -14 9
-29 12 -37 7 -13 -8 -60 7 -60 20 0 11 -48 30 -75 30 -14 0 -25 6 -25 14 0 8
9 12 23 11 12 -1 14 0 5 2 -15 4 -23 16 -16 26 1 1 -12 16 -28 33 -33 36 -40
45 -73 94 -40 59 -88 99 -111 93 -13 -4 -20 0 -20 9 0 20 -30 19 -31 -1 0 -12
-3 -11 -9 4 -5 11 -9 14 -9 8 -1 -7 -6 -13 -12 -13 -5 0 -8 4 -5 9 3 4 -3 19
-14 31 -11 12 -25 35 -32 51 -7 16 -19 29 -25 29 -8 0 -13 13 -13 30 0 17 -9
43 -20 58 -10 15 -25 50 -32 77 -7 28 -18 56 -25 63 -7 7 -13 31 -13 52 0 21
-4 42 -10 45 -5 3 -10 18 -10 32 0 35 -21 103 -32 103 -5 0 -8 6 -6 13 1 6 -2
41 -7 77 -5 36 -10 74 -11 85 -1 11 -10 47 -18 80 -9 33 -14 74 -11 90 2 17
-1 41 -8 55 -9 17 -11 35 -5 58 6 20 6 38 0 45 -18 23 -17 255 1 284 4 6 7 51
7 100 -1 48 2 104 6 123 3 19 7 53 8 75 0 22 4 45 8 50 8 13 30 167 30 223 1
23 4 42 8 42 10 0 41 150 34 161 -3 6 1 21 10 34 9 13 16 38 16 54 0 16 5 33
10 36 6 3 10 21 10 40 0 19 5 37 10 40 6 3 10 17 10 31 0 13 4 24 8 24 5 0 16
19 26 43 10 23 27 62 38 87 11 25 24 54 28 65 8 19 19 61 20 78 0 4 9 16 20
27 11 11 20 28 20 37 0 9 11 28 24 42 13 15 36 48 50 74 13 26 45 70 69 97 24
27 52 65 61 85 10 19 35 47 57 60 21 14 39 32 39 40 0 8 6 15 13 15 8 0 24 11
37 25 13 14 29 25 35 25 7 0 20 9 30 20 10 11 22 20 27 20 17 0 58 49 58 69 0
10 -14 31 -31 45 -32 27 -49 33 -49 16z m-603 -3522 c-3 -8 -6 -5 -6 6 -1 11
2 17 5 13 3 -3 4 -12 1 -19z m423 -129 c0 -14 -16 -11 -29 5 -10 12 -8 13 8 9
12 -3 21 -9 21 -14z"/>
<path d="M6307 10952 c-38 -42 -127 -241 -127 -285 0 -7 -9 -30 -20 -52 -14
-27 -20 -59 -20 -103 0 -35 -5 -73 -12 -85 -6 -12 -13 -57 -14 -99 -1 -42 -5
-81 -8 -86 -7 -12 1 -231 14 -362 5 -52 12 -120 14 -151 3 -31 14 -81 25 -110
11 -30 22 -69 26 -87 4 -18 13 -45 21 -60 8 -15 14 -43 14 -62 0 -20 6 -45 14
-56 8 -11 17 -36 21 -56 4 -20 18 -46 31 -59 16 -15 24 -34 24 -56 0 -24 7
-37 25 -49 14 -9 25 -25 25 -35 0 -16 54 -137 80 -179 5 -8 11 -27 15 -42 4
-19 12 -28 25 -28 13 0 20 -7 20 -19 0 -11 10 -27 23 -36 12 -8 27 -30 33 -48
7 -21 21 -37 41 -46 18 -8 34 -24 37 -37 4 -13 16 -34 27 -46 11 -13 38 -46
59 -75 28 -36 55 -59 94 -77 39 -19 56 -32 58 -48 2 -13 11 -24 23 -27 11 -2
25 -10 31 -19 6 -8 16 -12 22 -8 7 4 12 1 12 -7 0 -8 19 -26 43 -41 24 -15 47
-37 52 -49 6 -11 24 -25 40 -30 17 -6 35 -17 40 -24 6 -8 31 -19 55 -24 25 -6
57 -22 72 -36 14 -14 31 -22 36 -19 5 3 12 -3 15 -14 3 -11 17 -22 33 -26 16
-4 37 -15 47 -25 10 -11 21 -19 25 -20 4 0 17 -2 30 -3 12 -2 37 -17 55 -34
18 -18 42 -32 53 -32 12 0 29 -9 40 -21 14 -16 27 -20 54 -16 24 3 46 -2 70
-17 32 -19 89 -44 116 -49 7 -2 18 -8 25 -13 29 -22 213 -78 232 -71 7 2 25
-2 41 -10 16 -9 44 -13 65 -10 20 2 54 -2 76 -10 21 -7 60 -14 85 -15 25 -1
52 -7 60 -13 39 -30 99 -42 219 -43 l123 -2 -7 37 c-8 46 -12 53 -30 53 -8 0
-41 14 -74 31 -45 24 -73 31 -113 31 -29 0 -68 7 -87 15 -18 8 -56 19 -85 23
-71 12 -126 25 -156 38 -14 5 -45 16 -70 23 -25 7 -55 19 -66 26 -12 8 -46 16
-75 20 -36 4 -63 13 -79 28 -35 32 -64 45 -99 45 -16 0 -33 5 -36 10 -3 6 -13
10 -21 10 -9 0 -35 13 -59 30 -23 16 -61 32 -83 36 -23 3 -49 15 -58 25 -10
11 -31 19 -48 19 -24 0 -35 7 -48 30 -9 17 -25 30 -35 30 -29 0 -182 80 -205
109 -13 14 -35 34 -50 43 -14 10 -29 26 -33 37 -3 11 -26 29 -51 41 -24 12
-49 31 -55 41 -5 10 -16 19 -25 19 -8 0 -29 15 -47 33 -62 64 -127 139 -127
147 0 4 -20 20 -45 35 -30 19 -46 38 -50 57 -4 15 -20 41 -36 57 -16 16 -29
37 -29 46 0 9 -9 19 -20 22 -12 3 -20 14 -20 27 0 12 -15 34 -35 51 -19 17
-35 40 -35 51 0 12 -7 27 -15 34 -9 7 -25 33 -35 56 -11 24 -24 46 -30 49 -5
3 -10 13 -10 22 0 9 -10 27 -22 40 -22 23 -39 70 -59 163 -5 24 -14 49 -19 54
-6 6 -10 26 -10 46 0 21 -7 52 -16 70 -17 33 -33 86 -39 130 -2 14 -14 88 -26
165 -31 190 -29 519 2 664 6 25 13 60 15 76 3 17 9 39 13 50 15 38 31 91 31
105 0 8 9 24 21 36 14 15 22 39 25 72 3 48 2 51 -28 61 -40 14 -42 14 -61 -7z"/>
<path d="M8170 9225 c0 -17 6 -25 18 -25 12 0 13 -3 5 -8 -15 -10 0 -73 22
-95 8 -8 17 -28 21 -43 4 -16 18 -42 31 -57 12 -16 23 -36 23 -46 0 -14 53
-97 93 -146 4 -5 21 -31 37 -57 16 -27 36 -48 45 -48 8 0 15 -7 15 -15 0 -24
22 -65 36 -65 7 0 16 -9 19 -20 3 -11 13 -20 21 -20 8 0 14 -6 14 -13 0 -7 20
-32 45 -56 25 -24 45 -49 45 -55 0 -6 20 -33 45 -60 24 -27 47 -58 51 -69 4
-14 13 -18 29 -14 13 2 23 1 23 -2 -3 -11 25 -61 34 -61 14 0 128 -118 128
-132 0 -8 16 -29 36 -48 20 -19 54 -53 75 -75 22 -22 45 -40 53 -40 8 0 34
-20 58 -45 52 -54 87 -80 106 -80 18 0 44 -26 62 -64 10 -21 23 -31 38 -31 21
-1 31 -7 71 -52 12 -13 27 -20 34 -17 8 3 37 -17 66 -45 45 -43 56 -49 73 -40
23 12 68 -12 68 -36 0 -8 9 -19 20 -25 11 -6 20 -20 20 -31 0 -16 4 -19 21
-14 15 5 22 2 26 -13 7 -27 52 -47 59 -27 4 8 10 15 15 15 5 0 4 -11 -1 -25
-5 -14 -6 -24 -2 -23 17 3 62 -23 72 -42 6 -11 16 -20 21 -20 6 0 20 -11 31
-25 11 -14 27 -25 36 -25 21 0 74 -48 67 -60 -3 -5 4 -15 15 -22 12 -7 28 -29
37 -48 8 -19 22 -50 30 -69 9 -19 13 -46 9 -63 -7 -34 17 -88 39 -88 17 0 19
-12 5 -26 -13 -13 6 -146 25 -184 7 -14 10 -41 8 -61 -3 -23 1 -49 12 -69 9
-17 13 -39 10 -48 -4 -10 -7 -53 -7 -97 0 -68 3 -82 21 -96 20 -17 28 -39 14
-39 -3 0 -15 8 -25 17 -17 15 -20 15 -28 3 -6 -8 -10 -21 -10 -28 0 -14 45
-34 69 -30 9 1 22 -1 29 -5 12 -8 17 13 13 56 -1 9 2 17 7 17 13 0 22 39 11
45 -4 3 -5 12 -2 21 3 9 -4 24 -16 35 -26 25 -27 43 0 60 17 12 20 26 22 94 1
44 -2 86 -6 93 -5 7 -10 43 -12 80 -4 73 -19 141 -41 185 -8 16 -12 33 -8 38
3 5 -2 12 -10 15 -9 3 -16 17 -16 30 0 13 -8 31 -19 41 -25 24 -39 103 -17
103 8 0 18 -4 21 -10 3 -5 20 -10 36 -10 16 0 32 -6 35 -14 4 -11 12 -12 35
-4 16 5 36 8 44 4 8 -3 21 2 30 10 8 8 19 12 25 9 14 -9 12 14 -2 29 -16 14
-80 42 -91 38 -4 -1 -15 4 -23 13 -9 8 -21 15 -28 15 -7 0 -21 9 -31 20 -11
12 -31 20 -52 20 -18 0 -33 5 -33 10 0 6 -6 10 -14 10 -23 0 -76 34 -81 52 -3
9 -19 20 -35 23 -17 4 -32 10 -35 15 -8 13 -66 40 -85 40 -9 0 -29 11 -44 25
-15 14 -29 25 -32 25 -5 0 -19 11 -64 53 -17 15 -44 30 -60 33 -19 4 -38 19
-54 44 -13 20 -39 43 -58 51 -18 7 -44 26 -56 41 -13 16 -28 28 -32 28 -5 0
-33 25 -62 56 -50 53 -100 89 -110 78 -3 -2 -18 14 -33 36 -15 22 -36 40 -46
40 -10 0 -21 9 -24 20 -3 11 -12 20 -20 20 -7 0 -20 11 -29 25 -9 14 -22 25
-30 25 -7 0 -19 11 -26 25 -7 14 -21 25 -29 25 -20 0 -51 34 -51 55 0 8 -15
22 -32 31 -18 9 -37 23 -41 30 -4 8 -15 14 -22 14 -8 0 -15 5 -15 10 0 6 -9
10 -20 10 -13 0 -20 7 -20 19 0 20 -43 71 -60 71 -5 0 -10 7 -10 15 0 9 -7 18
-15 22 -9 3 -23 19 -31 35 -15 28 -45 60 -132 141 -23 21 -42 45 -42 53 0 7
-11 16 -25 20 -17 4 -25 13 -25 28 0 13 -12 33 -26 47 -14 13 -33 37 -41 53
-17 33 -52 65 -70 66 -7 0 -13 9 -13 20 0 11 -7 23 -15 26 -8 4 -15 14 -15 23
0 10 -11 28 -25 41 -14 13 -25 32 -25 41 0 10 -9 23 -19 29 -11 5 -31 36 -46
67 -51 110 -59 124 -79 135 -11 6 -27 17 -34 25 -22 21 -42 16 -42 -12z m2010
-2047 c0 -4 -7 -5 -15 -2 -8 4 -15 18 -15 33 l1 26 14 -25 c8 -14 14 -28 15
-32z m156 -505 c-10 -10 -19 5 -10 18 6 11 8 11 12 0 2 -7 1 -15 -2 -18z"/>
<path d="M7296 7632 c-4 -4 -83 -8 -174 -9 -213 -2 -342 -22 -427 -65 -27 -14
-63 -32 -80 -40 -52 -23 -104 -62 -114 -85 -6 -13 -17 -23 -25 -23 -7 0 -21
-11 -29 -24 -9 -13 -43 -51 -78 -84 -58 -58 -61 -63 -56 -99 4 -21 4 -32 1
-25 -16 35 -67 -2 -94 -68 -11 -27 -10 -36 6 -68 25 -47 54 -52 83 -16 11 15
21 33 21 40 0 7 6 11 14 8 8 -3 21 9 34 30 12 20 30 36 44 38 13 2 22 9 20 16
-3 17 38 51 54 45 20 -7 38 35 23 53 -17 20 -5 28 20 12 17 -10 25 -10 39 -1
9 7 32 20 50 29 17 9 32 23 32 31 0 8 4 12 9 9 5 -3 38 8 75 24 36 17 75 30
86 30 11 0 23 7 26 15 7 17 31 20 36 5 3 -11 49 0 98 23 32 16 59 15 68 0 6
-10 23 -10 66 -3 35 6 75 6 98 1 22 -5 53 -5 69 -1 17 5 40 5 52 1 76 -29 180
-48 267 -50 46 -1 71 -6 105 -21 11 -5 60 -18 110 -30 55 -13 106 -33 133 -51
31 -21 50 -27 68 -23 13 3 22 10 19 14 -3 5 -1 11 5 15 15 9 12 35 -4 35 -8 0
-21 8 -28 18 -7 10 -29 26 -48 36 -36 17 -100 61 -110 74 -13 18 -79 40 -110
37 -21 -2 -48 5 -68 16 -28 16 -34 17 -38 4 -8 -19 -30 -19 -38 0 -3 8 -12 12
-21 9 -8 -4 -22 -1 -30 6 -8 6 -18 9 -24 6 -5 -4 -12 2 -16 13 -4 12 -12 17
-24 14 -13 -3 -21 2 -26 17 -4 12 -13 19 -20 17 -7 -3 -16 -2 -21 3 -5 5 -29
10 -52 11 -29 2 -48 9 -56 21 -7 10 -16 15 -20 10z m699 -312 c3 -5 1 -10 -4
-10 -6 0 -11 5 -11 10 0 6 2 10 4 10 3 0 8 -4 11 -10z m-1487 -72 c-6 -18 -28
-21 -28 -4 0 9 7 16 16 16 9 0 14 -5 12 -12z"/>
<path d="M3713 7384 c-18 -9 -33 -21 -33 -27 0 -7 -4 -7 -12 1 -16 16 -43 15
-57 -2 -7 -8 -21 -12 -31 -9 -27 7 -25 -10 3 -41 22 -23 25 -24 40 -9 15 15
18 15 37 -2 13 -11 24 -15 28 -10 4 6 26 23 50 38 30 19 42 33 38 43 -3 9 -6
20 -6 25 0 13 -21 11 -57 -7z"/>
<path d="M3739 7276 c-13 -6 -42 -13 -64 -14 -22 -2 -42 -7 -45 -11 -3 -4 -22
-14 -43 -20 -81 -27 -206 -119 -314 -231 -53 -55 -56 -57 -82 -81 -34 -30 -27
-76 11 -70 12 1 57 -59 53 -72 -6 -15 40 -37 77 -37 21 0 44 16 93 65 36 35
65 67 65 70 0 3 -7 5 -15 5 -8 0 -15 7 -15 15 0 16 30 20 46 6 5 -5 40 14 88
50 43 32 85 59 93 59 8 0 27 6 41 14 31 16 97 42 128 51 11 3 52 1 90 -4 41
-6 71 -6 74 -1 5 9 24 10 120 7 56 -1 188 11 201 18 5 4 9 0 9 -7 0 -19 78
-51 107 -43 18 4 29 0 42 -17 16 -19 21 -20 35 -9 10 9 16 10 16 2 0 -6 6 -11
13 -11 6 0 25 -7 40 -15 25 -13 32 -13 49 -1 16 12 25 12 42 3 11 -7 23 -15
26 -18 12 -14 42 -17 69 -8 38 13 47 35 17 43 -13 3 -26 16 -29 28 -5 17 -9
19 -21 9 -11 -10 -19 -7 -42 14 -19 18 -35 24 -50 21 -16 -4 -26 1 -38 19 -10
15 -26 25 -41 25 -13 0 -28 8 -33 17 -5 9 -20 17 -33 19 -37 4 -133 41 -137
53 -2 6 -12 11 -22 11 -10 0 -22 5 -25 11 -5 7 -13 5 -25 -6 -16 -14 -25 -15
-52 -6 -18 6 -53 13 -78 16 -24 3 -47 9 -50 13 -3 5 -36 8 -75 7 -38 0 -76 3
-82 8 -8 6 -29 5 -51 0 -32 -8 -41 -7 -49 6 -9 14 -13 14 -36 2 -21 -11 -33
-12 -51 -3 -17 8 -30 7 -47 -2z"/>
<path d="M7150 7280 c-19 -5 -49 -7 -67 -4 -25 5 -44 -2 -94 -32 -34 -22 -73
-49 -86 -61 -13 -13 -36 -29 -51 -37 l-27 -14 38 -34 c25 -23 37 -43 37 -61 0
-25 3 -27 39 -27 30 0 41 5 46 19 3 12 19 21 42 26 21 4 50 13 66 22 49 25
151 54 172 49 12 -3 49 -35 84 -71 35 -36 69 -65 75 -65 7 0 23 -24 36 -52 12
-29 29 -67 37 -85 8 -17 13 -52 12 -76 -2 -27 3 -52 10 -61 10 -12 11 -19 2
-29 -6 -8 -8 -16 -5 -19 3 -4 6 -41 8 -84 2 -67 5 -79 24 -92 25 -17 29 -44 8
-61 -9 -7 -17 -40 -21 -79 -3 -37 -10 -76 -15 -87 -9 -20 -11 -32 -31 -170
-10 -73 -30 -118 -44 -103 -3 3 -9 28 -14 56 -4 29 -21 70 -37 94 -16 24 -42
68 -59 98 -57 103 -70 123 -111 169 -118 133 -207 237 -221 257 -8 13 -30 32
-49 43 -19 11 -34 25 -34 32 0 15 -39 48 -73 61 -15 5 -32 19 -38 30 -9 16 -6
24 12 41 l22 20 -32 29 c-27 24 -35 27 -53 17 -11 -6 -23 -19 -25 -29 -3 -10
-14 -21 -25 -24 -18 -4 -20 -10 -15 -42 3 -20 1 -46 -4 -57 -8 -15 -8 -22 2
-28 7 -4 10 -11 6 -16 -5 -4 -12 -1 -17 7 -14 23 -38 -6 -46 -56 -4 -26 -12
-44 -19 -44 -10 0 -13 -12 -10 -39 3 -31 -3 -50 -26 -85 -23 -35 -28 -49 -20
-63 6 -13 5 -39 -5 -83 -37 -167 -37 -188 0 -219 13 -11 12 -15 -6 -33 -19
-19 -20 -28 -14 -137 10 -202 18 -245 44 -260 9 -5 23 -38 32 -78 12 -51 22
-70 38 -78 12 -5 22 -16 22 -23 0 -7 11 -17 24 -22 14 -5 33 -22 43 -37 20
-32 49 -56 78 -64 11 -3 19 -12 18 -20 -1 -8 18 -28 41 -45 42 -31 46 -32 150
-32 80 0 119 4 158 19 29 10 62 19 74 19 13 0 24 8 27 20 5 21 31 27 42 10 7
-12 25 -13 25 -2 0 5 -12 12 -26 18 l-27 9 64 68 c60 64 70 83 69 135 0 12 6
22 14 22 27 0 66 41 66 70 0 16 5 32 10 35 6 4 10 14 9 23 -3 26 43 136 62
147 5 4 9 19 9 34 0 15 5 32 11 38 16 16 37 106 32 140 -3 19 2 41 12 57 16
24 24 141 17 261 -1 17 -1 64 -1 105 1 107 -10 166 -42 236 -16 34 -29 70 -29
81 0 29 -29 108 -58 162 -30 52 -154 180 -192 197 -38 17 -123 45 -145 49 -11
2 -36 0 -55 -5z m-338 -515 c-3 -11 -53 -27 -60 -20 -3 3 1 12 8 20 14 17 57
17 52 0z m-32 -55 c0 -5 -2 -10 -4 -10 -3 0 -8 5 -11 10 -3 6 -1 10 4 10 6 0
11 -4 11 -10z m-18 -55 c-5 -28 -46 -45 -64 -27 -14 14 -1 32 22 32 10 0 22 5
25 10 12 19 22 10 17 -15z m828 -141 c0 -8 -4 -12 -10 -9 -5 3 -10 10 -10 16
0 5 5 9 10 9 6 0 10 -7 10 -16z m27 -247 c-6 -20 -27 -19 -27 2 0 14 5 19 15
14 9 -3 14 -10 12 -16z m-482 -97 c3 -5 1 -10 -4 -10 -6 0 -11 5 -11 10 0 6 2
10 4 10 3 0 8 -4 11 -10z m87 -74 c-3 -5 -9 -1 -12 10 -4 10 -5 23 -2 28 3 5
9 1 12 -10 4 -10 5 -23 2 -28z m-42 -12 c0 -8 -4 -12 -10 -9 -5 3 -10 10 -10
16 0 5 5 9 10 9 6 0 10 -7 10 -16z m254 -129 c3 -9 0 -15 -8 -15 -8 0 -16 7
-20 15 -3 9 0 15 8 15 8 0 16 -7 20 -15z m-455 -139 c-1 -16 -2 -17 -6 -3 -2
9 -9 17 -14 17 -5 0 -9 4 -9 10 0 5 7 7 15 4 8 -4 14 -16 14 -28z m271 -16 c0
-5 -4 -10 -10 -10 -5 0 -10 5 -10 10 0 6 5 10 10 10 6 0 10 -4 10 -10z m-14
-145 c3 -8 -1 -21 -9 -29 -13 -14 -15 -13 -20 6 -10 35 17 56 29 23z m-403
-88 c6 -17 -19 -52 -28 -38 -8 13 3 51 15 51 4 0 10 -6 13 -13z m42 -77 c7
-11 -16 -50 -29 -50 -4 0 -2 7 5 17 11 13 11 17 2 20 -7 3 -13 9 -13 14 0 12
27 12 35 -1z m95 -31 c0 -5 -4 -9 -10 -9 -5 0 -10 7 -10 16 0 8 5 12 10 9 6
-3 10 -10 10 -16z"/>
<path d="M5051 7254 c0 -11 3 -14 6 -6 3 7 2 16 -1 19 -3 4 -6 -2 -5 -13z"/>
<path d="M4156 6932 c-3 -6 -3 -12 1 -15 10 -5 -5 -2 -36 8 -16 5 -21 4 -17
-4 5 -7 -6 -11 -32 -11 -27 0 -42 -5 -46 -16 -5 -12 -10 -14 -19 -5 -10 8 -19
6 -35 -9 -12 -11 -27 -20 -35 -20 -14 0 -77 -57 -77 -71 0 -7 -69 -78 -120
-121 -32 -29 -36 -66 -11 -114 24 -44 24 -81 2 -76 -22 5 -39 -17 -81 -104
-23 -46 -45 -86 -51 -89 -15 -10 -11 -35 6 -29 10 4 16 -3 20 -23 4 -15 11
-38 16 -51 16 -41 12 -55 -17 -48 -22 6 -25 4 -22 -16 2 -19 -1 -22 -20 -20
-33 5 -53 -15 -46 -44 4 -15 2 -24 -6 -24 -7 0 -9 -7 -6 -15 3 -8 9 -22 12
-30 4 -10 0 -15 -11 -15 -12 0 -15 -5 -11 -16 3 -9 6 -20 6 -25 0 -5 7 -9 15
-9 18 0 20 -17 3 -22 -9 -3 -8 -16 2 -51 7 -26 11 -49 9 -50 -2 -1 -13 -7 -24
-13 -11 -7 -19 -19 -19 -28 1 -9 -4 -16 -11 -16 -22 0 -24 -27 -4 -66 17 -34
17 -40 4 -54 -19 -21 -19 -40 1 -69 14 -19 14 -27 4 -46 -11 -20 -10 -30 4
-59 9 -19 15 -41 14 -48 -2 -7 7 -17 20 -23 13 -6 22 -19 22 -32 0 -12 5 -25
10 -28 6 -4 8 -10 5 -15 -7 -11 22 -70 33 -70 4 0 15 -18 25 -40 9 -22 23 -41
29 -41 40 -4 71 -8 73 -11 1 -2 5 -20 9 -40 7 -38 -6 -53 -18 -22 -5 14 -9 13
-36 -3 -32 -18 -41 -53 -14 -53 10 0 14 -6 10 -15 -4 -11 1 -15 18 -15 14 0
26 5 28 11 3 9 10 8 25 -2 17 -10 27 -10 48 -1 14 7 39 12 54 12 29 0 56 21
44 34 -4 4 0 4 9 1 9 -4 19 -13 22 -21 7 -19 65 -18 72 1 4 8 14 15 23 15 10
0 21 3 25 8 4 4 20 7 34 7 34 0 44 34 13 42 -34 9 -25 27 43 88 36 31 66 67
68 78 2 14 14 24 34 29 24 6 37 19 55 55 13 27 32 54 42 61 9 7 17 21 17 31 0
11 7 21 15 25 8 3 15 14 15 23 0 10 6 27 14 38 7 11 17 34 20 52 4 17 14 37
21 43 8 7 21 25 29 41 14 28 13 31 -10 54 -24 24 -32 55 -14 55 6 0 10 -6 10
-14 0 -15 24 -28 34 -19 3 4 6 15 6 26 0 10 9 30 20 44 11 14 18 29 15 33 -5
9 20 133 31 151 9 15 12 69 3 63 -4 -2 -9 6 -13 18 -4 16 3 30 24 51 31 30 38
55 20 73 -5 5 -6 24 -2 44 5 19 5 49 1 65 -4 18 -7 22 -8 11 -1 -14 -4 -17
-11 -10 -7 7 -6 22 4 45 13 32 13 45 -6 130 -11 53 -26 98 -34 102 -9 5 -12
16 -9 28 4 11 0 30 -9 44 -9 13 -16 35 -16 48 0 13 -9 32 -20 42 -11 10 -22
26 -25 36 -4 12 -16 19 -31 19 -19 0 -24 5 -24 24 0 32 -26 51 -64 48 -20 -2
-38 3 -45 12 -7 8 -20 12 -29 9 -14 -4 -15 -3 -2 6 17 12 10 21 -22 27 -12 2
-37 6 -54 10 -18 3 -34 1 -38 -4z m92 -172 c4 -11 27 -30 52 -42 24 -13 47
-30 50 -38 4 -8 18 -37 31 -64 15 -32 24 -68 24 -104 1 -40 6 -57 18 -64 10
-5 14 -14 11 -20 -6 -9 -8 -160 -4 -255 0 -7 7 -10 15 -7 11 5 15 -1 15 -19 0
-35 -10 -57 -25 -57 -22 0 -35 -55 -22 -90 6 -16 16 -30 22 -30 5 0 -1 -6 -15
-13 -18 -9 -27 -24 -31 -52 -4 -22 -3 -41 2 -43 15 -6 10 -22 -7 -22 -10 0
-14 -7 -13 -22 2 -13 0 -29 -5 -36 -6 -10 -1 -11 19 -6 23 6 26 4 23 -12 -2
-13 -10 -18 -26 -16 -13 2 -25 -3 -28 -12 -3 -9 -11 -16 -18 -16 -6 0 -16 -10
-21 -22 -15 -35 -37 -28 -41 12 -2 19 -8 44 -13 55 -5 11 -17 47 -27 80 -10
33 -37 100 -61 149 -24 50 -43 95 -43 102 0 7 -11 26 -25 42 -14 17 -25 34
-25 40 0 16 -22 53 -68 114 -23 31 -42 64 -42 71 0 8 -20 41 -45 73 -49 63
-52 72 -30 80 10 4 13 13 10 24 -4 13 1 19 22 25 37 9 53 23 53 46 0 11 7 19
15 19 8 0 19 9 25 20 6 11 16 20 21 20 6 0 24 11 41 25 16 14 38 25 48 25 11
0 24 9 30 20 6 11 25 24 43 29 17 5 33 10 35 10 1 1 6 -8 10 -19z m-573 -429
c3 -5 1 -12 -5 -16 -5 -3 -10 1 -10 9 0 18 6 21 15 7z m-25 -35 c0 -2 -7 -9
-15 -16 -12 -10 -15 -10 -15 4 0 9 7 16 15 16 8 0 15 -2 15 -4z m26 -47 c3 -6
2 -15 -2 -19 -12 -12 -38 5 -30 19 9 14 23 14 32 0z m804 -40 c0 -5 -4 -9 -10
-9 -5 0 -10 7 -10 16 0 8 5 12 10 9 6 -3 10 -10 10 -16z m-23 -151 c-3 -8 -6
-5 -6 6 -1 11 2 17 5 13 3 -3 4 -12 1 -19z m-843 -414 c4 -10 1 -14 -6 -12
-15 5 -23 28 -10 28 5 0 13 -7 16 -16z m751 -93 c0 -7 -10 -17 -22 -22 -20 -7
-23 -5 -23 17 0 21 4 25 23 22 12 -2 22 -9 22 -17z m-738 -72 c17 -17 5 -43
-13 -28 -11 9 -14 7 -14 -11 0 -17 4 -21 17 -16 17 7 33 -9 33 -32 0 -10 -4
-9 -16 2 -8 9 -24 16 -35 16 -16 0 -18 5 -13 28 12 57 19 63 41 41z m57 -154
c19 -20 10 -51 -10 -34 -13 10 -20 49 -10 49 3 0 11 -7 20 -15z m160 -81 c23
-9 20 -24 -4 -24 -11 0 -20 7 -20 15 0 17 2 18 24 9z"/>
<path d="M11120 6383 c0 -38 84 -104 111 -87 5 3 9 -2 9 -11 0 -8 17 -23 38
-33 20 -9 41 -23 45 -29 4 -7 14 -13 21 -13 20 0 40 -27 26 -35 -15 -9 -12
-35 5 -35 8 0 17 -14 21 -36 4 -19 13 -38 20 -41 8 -3 14 -11 14 -18 0 -7 7
-15 14 -18 8 -3 18 -22 22 -42 3 -19 15 -42 25 -49 21 -15 39 -96 39 -179 0
-26 7 -58 15 -70 16 -24 31 -292 17 -301 -5 -3 -7 -19 -6 -35 1 -17 -2 -34 -7
-37 -5 -3 -9 -21 -9 -39 0 -28 5 -36 23 -40 25 -6 46 -3 64 8 6 4 14 3 18 -3
3 -5 12 -10 20 -10 15 0 24 51 30 185 3 50 10 116 17 147 10 49 9 60 -4 75 -9
10 -15 33 -14 53 1 19 -3 41 -8 49 -6 8 -12 33 -12 57 -2 63 -12 94 -28 88 -8
-3 -17 -1 -21 5 -3 6 -1 11 5 11 7 0 8 6 0 19 -5 11 -10 31 -10 45 0 13 -5 26
-12 28 -7 3 -13 21 -15 42 -2 40 -17 66 -38 66 -6 0 -19 18 -28 41 -11 27 -20
38 -28 33 -8 -5 -10 -2 -7 8 9 21 -44 77 -79 84 -17 4 -36 19 -48 37 -24 38
-74 64 -147 77 -29 5 -63 12 -75 16 -18 5 -23 2 -23 -13z m525 -873 c4 -6 -6
-10 -22 -9 -25 0 -26 1 -8 9 11 5 21 9 22 9 1 1 5 -3 8 -9z"/>
<path d="M3581 6194 c-11 -14 -11 -18 2 -31 14 -15 16 -13 15 15 -1 18 -1 32
-2 32 -1 -1 -7 -8 -15 -16z"/>
<path d="M5355 5799 c-6 -24 -3 -34 9 -41 9 -5 16 -16 16 -25 0 -29 27 5 35
44 4 25 2 38 -7 44 -27 18 -46 9 -53 -22z"/>
<path d="M5336 5727 c-9 -35 -7 -47 9 -47 10 0 15 10 15 29 0 37 -16 49 -24
18z"/>
<path d="M5258 5595 c-5 -23 -2 -25 27 -25 18 0 38 7 45 15 10 13 9 15 -8 15
-12 0 -24 5 -27 10 -12 19 -33 10 -37 -15z"/>
<path d="M8515 5590 c-3 -6 -17 -7 -31 -4 -13 3 -35 3 -48 0 -19 -5 -23 -11
-19 -27 5 -17 11 -20 32 -14 14 4 40 6 58 6 35 -1 46 9 37 33 -7 18 -20 21
-29 6z"/>
<path d="M8280 5572 c0 -5 -19 -7 -44 -5 -26 3 -46 1 -50 -6 -4 -6 -18 -11
-32 -11 -13 0 -24 -4 -24 -10 0 -5 -9 -10 -20 -10 -12 0 -20 -7 -20 -16 0 -14
6 -15 38 -9 20 4 64 11 97 16 33 5 77 12 98 15 34 6 47 17 30 27 -19 11 -73
18 -73 9z"/>
<path d="M7969 5516 c-14 -7 -32 -10 -40 -6 -20 11 -122 0 -143 -15 -28 -21
-10 -35 42 -31 52 4 83 14 94 30 5 8 11 7 20 -2 17 -17 57 -15 65 4 4 11 13
14 29 10 27 -7 33 8 8 18 -24 9 -47 7 -75 -8z"/>
<path d="M2759 5489 c-7 -14 -17 -19 -31 -16 -18 5 -20 2 -14 -26 4 -17 13
-35 21 -40 9 -4 13 -12 10 -17 -3 -5 1 -35 9 -66 8 -31 13 -61 11 -67 -6 -16
42 -70 55 -62 6 3 10 2 10 -4 0 -6 -9 -15 -20 -21 -16 -8 -20 -21 -20 -58 0
-53 5 -64 39 -82 21 -11 26 -10 36 4 7 9 15 16 19 16 13 0 5 -21 -14 -37 -11
-10 -20 -29 -20 -44 0 -15 -7 -32 -15 -39 -21 -17 -19 -40 4 -40 10 0 24 -7
31 -15 10 -12 10 -15 -3 -15 -16 0 -31 -53 -16 -58 16 -6 10 -41 -10 -51 -17
-10 -18 -22 -16 -148 2 -76 9 -164 16 -197 12 -55 11 -59 -8 -75 -29 -24 -35
-48 -18 -82 13 -24 13 -29 1 -29 -13 0 -18 -25 -31 -170 -2 -25 -8 -71 -13
-102 -5 -34 -5 -63 0 -73 6 -9 6 -24 3 -33 -10 -23 -5 -104 7 -119 5 -7 7 -22
3 -34 -6 -18 -4 -21 10 -15 13 4 16 2 11 -9 -3 -8 -1 -15 4 -15 6 0 10 -5 10
-11 0 -6 -9 -8 -20 -4 -14 5 -20 2 -20 -9 0 -10 9 -16 23 -16 20 -1 21 -2 5
-14 -12 -9 -18 -27 -18 -55 0 -33 6 -46 30 -68 17 -14 30 -34 30 -43 0 -10 9
-29 20 -43 13 -16 16 -27 9 -29 -23 -8 2 -44 56 -82 30 -21 52 -42 50 -46 -2
-4 16 -22 40 -40 25 -19 45 -37 45 -41 0 -4 16 -14 36 -21 29 -10 35 -17 31
-36 -3 -17 -1 -22 10 -17 11 3 13 1 10 -10 -4 -8 -2 -17 3 -20 6 -4 10 -14 10
-23 0 -20 36 -46 51 -37 5 4 12 -7 15 -24 4 -17 10 -31 15 -31 5 0 9 -6 9 -13
0 -14 40 -37 65 -37 8 0 15 -9 15 -20 0 -11 9 -25 20 -32 12 -8 20 -24 20 -40
0 -23 4 -28 25 -28 13 0 28 -6 32 -13 4 -7 47 -32 96 -56 48 -24 87 -48 87
-52 0 -5 11 -14 25 -19 14 -5 25 -14 25 -18 0 -5 18 -12 40 -16 22 -3 48 -15
57 -26 10 -11 27 -20 40 -20 12 0 25 -4 28 -10 3 -5 18 -7 34 -4 19 4 30 1 34
-9 3 -8 26 -18 53 -22 26 -3 61 -13 78 -20 17 -7 47 -20 68 -29 20 -9 44 -16
55 -16 10 0 29 -8 43 -17 13 -9 42 -20 64 -24 125 -22 173 -34 187 -46 19 -16
51 -17 66 -2 8 8 17 7 34 -5 13 -9 33 -16 44 -16 11 0 26 -9 33 -20 9 -15 22
-19 60 -19 31 1 59 -5 76 -16 18 -12 52 -19 104 -21 50 -2 80 -8 87 -17 8 -11
24 -12 88 -3 106 15 246 12 338 -6 52 -10 82 -11 97 -5 16 7 29 6 46 -3 13 -7
29 -9 35 -6 5 4 20 1 31 -6 18 -11 23 -10 35 5 11 16 22 18 72 11 32 -4 73
-15 91 -24 18 -10 41 -16 51 -13 13 3 20 -2 24 -17 6 -23 27 -19 27 5 0 20
-44 65 -64 65 -10 0 -14 5 -11 10 3 6 1 10 -4 10 -14 0 -14 33 0 47 18 18 -32
44 -82 43 -24 0 -61 2 -82 6 -20 3 -43 2 -50 -3 -8 -7 -38 -6 -84 0 -81 12
-102 3 -104 -42 -1 -28 -3 -23 -13 21 -4 18 -11 25 -20 22 -8 -3 -36 2 -63 11
-53 18 -159 27 -183 15 -9 -5 -53 -4 -99 1 -60 7 -87 6 -97 -2 -11 -9 -14 -8
-14 1 0 8 -12 10 -40 5 -32 -5 -41 -3 -46 10 -10 25 -50 37 -80 23 -22 -10
-27 -9 -36 6 -7 12 -17 16 -33 12 -14 -4 -29 0 -38 9 -8 8 -17 11 -20 8 -3 -3
-14 2 -23 12 -12 12 -27 15 -50 12 -24 -4 -37 0 -50 14 -12 14 -30 19 -66 19
-27 0 -74 9 -106 21 -31 12 -84 26 -117 33 -32 6 -57 16 -55 21 3 9 -47 21
-127 29 -17 2 -43 13 -58 25 -16 12 -42 21 -61 21 -21 0 -42 8 -54 20 -11 11
-28 20 -37 20 -10 0 -27 7 -37 15 -11 8 -31 15 -44 15 -23 0 -50 17 -109 68
-14 12 -33 22 -41 22 -8 0 -30 18 -49 40 -19 22 -41 40 -49 40 -8 0 -14 6 -14
13 0 7 -9 18 -20 25 -11 7 -20 20 -20 31 0 19 -26 47 -62 65 -11 6 -26 20 -32
31 -6 11 -29 37 -51 58 -59 56 -66 62 -86 86 -11 11 -19 25 -19 31 0 5 -11 12
-25 16 -14 3 -25 12 -25 20 0 7 -24 32 -52 55 -29 23 -61 58 -70 78 -10 20
-29 49 -43 65 -16 19 -23 36 -19 48 3 11 -1 27 -9 36 -9 9 -18 34 -22 54 -5
26 -11 35 -21 31 -9 -3 -14 2 -14 16 0 15 6 21 21 21 18 0 19 2 9 15 -10 12
-10 21 -2 40 6 14 9 32 6 40 -6 14 -8 13 -20 -2 -7 -10 -14 -13 -14 -7 0 7 -9
14 -21 17 -31 8 -17 32 20 34 41 2 48 9 33 33 -15 25 -15 30 2 30 14 0 28 67
16 75 -4 2 -6 23 -5 47 1 24 -3 49 -9 56 -6 9 -6 16 1 20 5 4 13 20 17 35 5
23 2 33 -17 51 -24 23 -24 23 -4 36 20 12 20 13 2 26 -18 13 -18 14 0 33 9 11
15 27 11 36 -3 9 1 18 10 22 13 5 15 15 10 49 -3 24 -1 46 4 49 16 10 12 35
-5 35 -20 0 -19 20 1 49 13 18 17 51 18 148 1 68 -2 127 -7 130 -5 3 -6 16 -3
29 4 14 2 24 -4 24 -7 0 -9 9 -5 22 6 17 4 20 -9 15 -8 -3 -19 0 -23 7 -5 7
-15 15 -23 18 -9 3 -5 7 13 10 19 4 27 1 27 -8 0 -8 7 -14 15 -14 20 0 20 48
1 86 -9 15 -12 40 -9 56 4 19 1 28 -7 28 -9 0 -10 12 -5 46 5 35 2 54 -14 84
-11 21 -22 57 -24 79 -2 23 -9 47 -15 53 -7 7 -12 17 -12 23 0 5 -11 23 -24
38 -15 17 -22 35 -19 48 6 22 -24 86 -44 93 -7 3 -18 -4 -24 -15z m176 -931
c-6 -25 -71 -63 -80 -48 -8 14 72 87 83 75 2 -1 0 -14 -3 -27z m-75 -303 c-7
-8 -16 -15 -21 -15 -5 0 -6 7 -3 15 4 8 13 15 21 15 13 0 13 -3 3 -15z m-5
-94 c3 -5 1 -12 -5 -16 -5 -3 -10 1 -10 9 0 18 6 21 15 7z m-5 -507 c0 -8 -5
-12 -10 -9 -6 4 -8 11 -5 16 9 14 15 11 15 -7z m17 -56 c-3 -8 -6 -5 -6 6 -1
11 2 17 5 13 3 -3 4 -12 1 -19z"/>
<path d="M7582 5459 c-47 -9 -62 -16 -62 -29 0 -5 13 -5 29 1 15 5 32 9 37 8
16 -2 54 13 54 22 0 10 1 10 -58 -2z"/>
<path d="M7405 5430 c-3 -5 -16 -10 -28 -10 -20 -1 -21 -1 -4 -11 25 -14 87
-2 87 16 0 17 -45 21 -55 5z"/>
<path d="M7290 5380 c0 -5 5 -10 10 -10 6 0 10 5 10 10 0 6 -4 10 -10 10 -5 0
-10 -4 -10 -10z"/>
<path d="M3573 5064 c-29 -12 -31 -16 -26 -49 4 -25 2 -35 -7 -35 -7 0 -11 -2
-8 -5 3 -3 22 2 42 10 21 9 47 13 59 10 19 -5 20 -5 4 5 -9 6 -26 8 -37 5 -21
-7 -23 -3 -14 32 4 13 11 20 20 16 8 -3 14 0 14 5 0 18 -14 20 -47 6z"/>
<path d="M3370 5048 c0 -5 5 -8 10 -8 6 0 10 -4 10 -10 0 -5 -9 -10 -19 -10
-11 0 -23 5 -26 10 -9 14 -44 11 -89 -9 -34 -15 -36 -18 -22 -30 12 -10 13
-18 5 -32 -11 -21 0 -26 18 -8 7 7 19 8 30 4 10 -5 21 -9 25 -9 3 -1 9 -4 13
-7 7 -8 65 12 65 22 0 4 10 5 22 1 16 -4 19 -2 13 8 -6 10 -4 12 8 7 9 -3 19
-2 23 4 4 6 11 6 20 -2 11 -9 17 -9 28 1 17 13 10 40 -10 40 -7 0 -17 6 -21
14 -8 14 -103 27 -103 14z"/>
<path d="M4120 5046 c0 -2 7 -6 15 -10 8 -3 15 -1 15 4 0 6 -7 10 -15 10 -8 0
-15 -2 -15 -4z"/>
<path d="M3180 4960 c0 -5 5 -10 10 -10 6 0 10 5 10 10 0 6 -4 10 -10 10 -5 0
-10 -4 -10 -10z"/>
<path d="M6137 4494 c-15 -8 -32 -12 -37 -9 -28 17 -187 -92 -176 -121 7 -17
-6 -25 -23 -14 -15 9 -71 -7 -71 -20 0 -5 -11 -21 -25 -36 -26 -28 -28 -45 -8
-51 6 -2 13 6 15 19 3 21 8 23 51 21 44 -3 52 1 83 32 18 19 38 35 43 35 5 0
28 17 51 37 23 21 62 44 86 51 42 12 71 42 59 62 -8 13 -14 12 -48 -6z"/>
<path d="M5063 4482 c-7 -12 -2 -26 21 -57 36 -48 140 -119 161 -111 9 3 15
-1 15 -9 0 -27 38 -56 64 -49 18 4 27 0 35 -15 7 -11 30 -25 54 -32 75 -20
121 -40 144 -61 l22 -21 38 25 c21 14 47 28 59 32 11 3 35 21 53 40 25 25 31
39 26 55 -8 26 -16 26 -56 2 -17 -11 -37 -17 -44 -15 -7 3 -16 1 -20 -5 -8
-14 -75 -14 -75 -1 0 6 -4 10 -10 10 -5 0 -10 -7 -10 -15 0 -23 -18 -18 -36
10 -22 34 -75 55 -133 54 -25 -1 -38 -3 -28 -6 20 -5 13 -23 -9 -23 -19 0 -65
41 -58 52 3 4 14 8 25 8 18 0 19 2 5 15 -8 8 -17 15 -20 15 -3 0 -26 16 -52
35 -28 21 -57 35 -74 35 -18 0 -33 7 -39 19 -14 25 -45 32 -58 13z"/>
<path d="M5890 4370 c0 -5 5 -10 10 -10 6 0 10 5 10 10 0 6 -4 10 -10 10 -5 0
-10 -4 -10 -10z"/>
<path d="M4960 4305 c-15 -18 -5 -36 20 -32 28 4 35 14 20 32 -16 19 -24 19
-40 0z"/>
<path d="M5832 2291 c2 -7 7 -12 11 -12 12 1 9 15 -3 20 -7 2 -11 -2 -8 -8z"/>
<path d="M7034 2285 c-4 -10 -14 -15 -26 -12 -11 3 -21 0 -24 -8 -4 -9 -15
-10 -44 -4 -28 6 -48 5 -74 -6 -19 -8 -37 -11 -40 -6 -7 11 -198 2 -213 -11
-19 -15 -153 -14 -163 2 -7 11 -13 10 -35 -4 -24 -16 -35 -16 -89 -7 -52 9
-63 9 -72 -4 -6 -9 -18 -13 -27 -9 -10 3 -20 -3 -27 -17 -7 -12 -15 -18 -19
-13 -17 24 -47 32 -72 18 -31 -17 -50 -17 -85 1 -50 26 -87 13 -77 -26 9 -32
40 -43 69 -24 22 14 25 14 31 -1 5 -13 15 -15 49 -10 28 3 46 1 50 -6 5 -7 10
-4 15 9 9 24 57 24 71 -1 7 -13 26 -16 96 -14 48 0 108 -2 133 -6 31 -5 49 -4
53 3 9 14 53 14 61 0 4 -6 14 -7 24 -3 23 9 59 13 213 18 75 2 141 7 146 10 5
3 29 8 53 11 34 4 51 12 71 37 24 28 26 34 15 52 -8 11 -23 26 -35 34 -19 13
-22 12 -28 -3z m-30 -56 c-3 -5 -10 -7 -15 -3 -5 3 -7 10 -3 15 3 5 10 7 15 3
5 -3 7 -10 3 -15z"/>
<path d="M5830 2250 c0 -5 5 -10 10 -10 6 0 10 5 10 10 0 6 -4 10 -10 10 -5 0
-10 -4 -10 -10z"/>
</g>
</svg>
